<svg width="52" height="52" viewBox="0 0 52 52" fill="none" xmlns="http://www.w3.org/2000/svg">
    <circle cx="26" cy="26" r="26" fill="" />
    <path d="M26.0165 37C24.8004 36.994 23.8142 36.0143 23.8022 34.8H28.2088C28.2115 35.094 28.1557 35.3857 28.0447 35.658C27.7555 36.3201 27.1653 36.803 26.4583 36.956H26.4528H26.4385H26.4274H26.4153H26.4076C26.2789 36.9826 26.148 36.9974 26.0165 37ZM34.8297 33.7H17.2033V31.5L19.4066 30.4V24.35C19.3486 22.798 19.6996 21.258 20.4245 19.884C21.1462 18.6097 22.3796 17.7048 23.8132 17.398V15H28.2198V17.398C31.061 18.0734 32.6264 20.5418 32.6264 24.35V30.4L34.8297 31.5V33.7ZM37 23.8H34.7967C34.6941 20.9553 33.3245 18.305 31.0621 16.573L32.6264 15C33.9441 16.0235 35.0088 17.3354 35.7386 18.8346C36.4932 20.3867 36.9225 22.0764 37 23.8ZM17.2033 23.8H15C15.0775 22.0764 15.5067 20.3867 16.2614 18.8346C16.9912 17.3354 18.0559 16.0235 19.3736 15L20.9379 16.573C18.6752 18.3048 17.3056 20.9552 17.2033 23.8Z" fill="black" />
</svg>