<svg width="20" height="20" viewBox="0 0 20 20" fill="none" xmlns="http://www.w3.org/2000/svg">
    <path d="M10.015 20C8.90941 19.9946 8.01294 19.1039 8.002 18H12.008C12.0104 18.2673 11.9597 18.5324 11.8588 18.78C11.5959 19.3819 11.0593 19.8209 10.4166 19.96H10.4116H10.3986H10.3886H10.3776H10.3706C10.2535 19.9842 10.1345 19.9976 10.015 20ZM18.027 17H2.003V15L4.00601 14V8.5C3.95325 7.08912 4.27234 5.68913 4.9314 4.44C5.58742 3.28151 6.70876 2.45888 8.01202 2.18V0H12.018V2.18C14.6009 2.794 16.024 5.038 16.024 8.5V14L18.027 15V17ZM20 8H17.997C17.9037 5.4139 16.6587 3.00451 14.6019 1.43L16.024 0C17.2219 0.930479 18.1898 2.12311 18.8533 3.486C19.5393 4.89703 19.9295 6.43307 20 8ZM2.003 8H0C0.0704628 6.43307 0.460676 4.89702 1.14672 3.486C1.81018 2.12311 2.77812 0.930479 3.97596 0L5.3981 1.43C3.34113 3.00432 2.096 5.41382 2.003 8Z" fill="#06213A"/>
    </svg>
    