<svg width="31" height="31" viewBox="0 0 31 31" fill="none" xmlns="http://www.w3.org/2000/svg">
    <g clip-path="url(#clip0_131_1300)">
    <path d="M15.5 31C24.0604 31 31 24.0604 31 15.5C31 6.93962 24.0604 3.05176e-05 15.5 3.05176e-05C6.93959 3.05176e-05 0 6.93962 0 15.5C0 24.0604 6.93959 31 15.5 31Z" fill="#3C5A9A"/>
    <path d="M20.54 4.75769H17.1064C15.0688 4.75769 12.8023 5.61469 12.8023 8.56832C12.8123 9.59748 12.8023 10.5831 12.8023 11.6924H10.4451V15.4435H12.8753V26.2423H17.3409V15.3722H20.2884L20.5551 11.6818H17.264C17.264 11.6818 17.2713 10.0402 17.264 9.56348C17.264 8.39627 18.4785 8.46311 18.5515 8.46311C19.1295 8.46311 20.2532 8.4648 20.5417 8.46311V4.75769H20.54Z" fill="white"/>
    </g>
    <defs>
    <clipPath id="clip0_131_1300">
    <rect width="31" height="31" fill="white"/>
    </clipPath>
    </defs>
    </svg>
    