<svg width="30" height="31" viewBox="0 0 30 31" fill="none" xmlns="http://www.w3.org/2000/svg">
    <path d="M10.3011 0.840369C6.57373 2.11709 3.39479 4.91044 1.62967 8.43212C1.01273 9.64886 0.567166 10.9427 0.30154 12.2794C-0.375377 15.604 0.0958945 19.1428 1.62967 22.1761C2.62362 24.1554 4.05457 25.912 5.78542 27.283C7.42202 28.5854 9.32424 29.5451 11.3464 30.0849C13.8913 30.7704 16.6075 30.7532 19.1781 30.1706C21.5002 29.6393 23.6937 28.5254 25.4417 26.9145C27.2925 25.2094 28.6121 22.973 29.3147 20.5652C30.0773 17.9347 30.1801 15.1327 29.7003 12.4422C24.9019 12.4422 20.1035 12.4422 15.2965 12.4422C15.2965 14.4301 15.2965 16.4266 15.2965 18.4145C18.0728 18.4145 20.8575 18.4145 23.6338 18.4145C23.3081 20.3253 22.1771 22.0647 20.5662 23.1444C19.5551 23.8213 18.3984 24.2668 17.1988 24.4725C15.9906 24.6781 14.7481 24.7038 13.5485 24.4639C12.3232 24.224 11.1579 23.7099 10.1383 22.9901C8.51023 21.8505 7.26779 20.1711 6.63371 18.2945C5.9825 16.3838 5.97393 14.2502 6.63371 12.3394C7.08785 10.9941 7.85045 9.74311 8.85297 8.73202C10.0868 7.46387 11.6892 6.56417 13.42 6.19572C14.9024 5.87869 16.4619 5.93867 17.9099 6.37566C19.1438 6.75268 20.2749 7.42103 21.2088 8.31216C22.1514 7.37819 23.0854 6.43564 24.0279 5.50167C24.5163 4.99613 25.039 4.51628 25.5188 3.9936C24.0965 2.67404 22.417 1.61154 20.5919 0.943192C17.3187 -0.282113 13.6085 -0.307819 10.3011 0.840369Z" fill="white" />
    <path d="M10.3011 0.84029C13.6086 -0.307898 17.3188 -0.282192 20.6091 0.934545C22.4342 1.60289 24.1051 2.6654 25.536 3.98495C25.0562 4.49907 24.5421 4.98748 24.0451 5.49302C23.1026 6.427 22.1686 7.36954 21.2261 8.30351C20.2921 7.41238 19.161 6.73546 17.9272 6.36702C16.4791 5.93002 14.9196 5.87004 13.4372 6.18708C11.7064 6.55553 10.104 7.46379 8.87018 8.72337C7.86765 9.73446 7.10505 10.9855 6.65092 12.3307C4.98005 11.0369 3.30918 9.73446 1.63831 8.44061C3.39486 4.91036 6.5738 2.11701 10.3011 0.84029Z" fill="#E94435" />
    <path d="M0.30154 12.2793C0.567166 10.9426 1.0213 9.64877 1.62967 8.43204C3.30054 9.72589 4.97141 11.0283 6.64228 12.3222C5.9825 14.233 5.99107 16.3665 6.64228 18.2773C4.97141 19.5712 3.30054 20.8736 1.62967 22.1675C0.0958945 19.1513 -0.375377 15.6039 0.30154 12.2793Z" fill="#F8BB15" />
    <path d="M15.3051 12.4336C20.1035 12.4336 24.9019 12.4336 29.7088 12.4336C30.1887 15.1241 30.0859 17.926 29.3233 20.5566C28.6206 22.9643 27.3011 25.2093 25.4503 26.9059C23.8308 25.6463 22.2028 24.3867 20.5919 23.1271C22.2028 22.0561 23.3338 20.3081 23.6594 18.3973C20.8832 18.3973 18.0984 18.3973 15.3222 18.3973C15.2965 16.4179 15.3051 14.43 15.3051 12.4336Z" fill="#547DBE" />
    <path d="M1.62976 22.176C3.30063 20.8822 4.9715 19.5797 6.64237 18.2859C7.27645 20.171 8.51889 21.8418 10.1469 22.9815C11.1666 23.7012 12.3319 24.2068 13.5572 24.4553C14.7568 24.6952 16.0078 24.6695 17.2074 24.4638C18.407 24.2582 19.5638 23.8126 20.5749 23.1357C22.1943 24.3953 23.8223 25.6549 25.4332 26.9144C23.6853 28.5339 21.4917 29.6392 19.1696 30.1705C16.6076 30.7532 13.8914 30.7703 11.3379 30.0848C9.31577 29.545 7.41354 28.5853 5.77695 27.2829C4.05466 25.9033 2.62371 24.1468 1.62976 22.176Z" fill="#34A751" />
</svg>